<svg width="515" height="604" viewBox="0 0 515 604" fill="none" xmlns="http://www.w3.org/2000/svg">
<path d="M212.374 602.153C203.259 597.854 198.472 588.955 198.315 576.014C198.217 567.889 198.102 567.475 195.71 566.63C190.089 564.643 183.311 571.203 183.468 578.477C183.589 584.07 186.3 588.591 191.886 592.516C196.871 596.018 198.186 599.582 195.278 601.708C191.218 604.677 182.339 602.405 176.32 596.857C170.162 591.181 167.523 585.223 167.455 576.843L167.401 570.055L155.888 564.969C76.2208 529.78 21.5756 466.256 4.52689 389.014C0.552994 371.01 -0.451051 358.922 0.169259 336.551C0.779719 314.535 2.96274 301.13 9.01475 282.233C12.1931 272.309 20.2961 252.467 22.0437 250.329C22.6866 249.542 22.1513 245.672 20.4529 238.829C16.9553 224.735 15.9176 216.548 15.8943 202.864C15.8496 176.586 24.3713 147.067 39.0053 122.809L43.0504 116.103L37.5508 107.212C20.7619 80.0707 12.4284 54.7954 11.2046 27.3045C10.4515 10.3854 11.6527 5.55056 17.5083 1.93155C23.1027 -1.52595 27.7754 -0.41782 40.0243 7.2712C54.4831 16.3475 67.0098 22.8617 83.3745 29.8146C102.145 37.7896 130.375 47.3691 133.161 46.7092C134.378 46.4207 140.774 44.1116 147.374 41.5778C201.793 20.6858 267.946 16.3191 327.874 29.6631C340.335 32.4376 367.069 40.7986 375.737 44.6323C378.7 45.9424 381.772 47.0143 382.564 47.0143C384.887 47.0143 415.332 36.2455 428.27 30.8476C444.246 24.1826 460.256 16.0781 472.374 8.52137C477.874 5.09177 483.357 1.77466 484.559 1.15001C490.189 -1.77738 498.915 1.13881 502.106 7.01427C503.807 10.1464 503.963 12.1961 503.584 26.5143C503.281 37.9778 502.566 45.0808 501.06 51.5664C496.614 70.7134 488.049 90.8206 477.288 107.373C472.015 115.484 471.645 116.412 472.908 118.373C490.743 146.078 498.874 172.569 498.874 202.969C498.874 216.92 497.236 229.646 493.885 241.733L492.09 248.207L496.906 258.361C510.121 286.216 515.464 313.712 514.607 349.452C513.748 385.265 507.101 411.828 491.068 443.514C464.294 496.432 420.087 537.474 361.764 563.564L347.507 569.941L347.759 575.384C348.261 586.227 342.88 595.84 333.765 600.382C327.227 603.639 320.45 603.958 318.91 601.08C316.905 597.335 317.697 595.145 321.817 593.044C330.543 588.592 334.23 578.725 329.675 572.014C326.666 567.58 322.426 565.43 319.058 566.63C316.681 567.477 316.569 567.895 316.426 576.514C316.315 583.194 315.75 586.674 314.236 590.014C309.223 601.066 293.646 608.061 289.848 600.965C288.354 598.173 289.334 595.818 292.81 593.847C296.99 591.476 300.017 584.998 300.017 578.427C300.017 571.202 299.271 569.271 295.782 567.467C293.105 566.082 292.497 566.099 289.23 567.65C283.984 570.139 282.479 574.425 283.204 584.81C283.718 592.164 283.562 593.327 281.829 595.06C280.754 596.135 279.26 597.014 278.509 597.014C275.916 597.014 272.178 593.096 270.446 588.563C268.921 584.57 268.345 584.014 265.726 584.014C261.189 584.014 258.874 582.354 258.874 579.102C258.874 575.79 260.185 574.499 264.48 573.582C266.98 573.048 267.806 572.187 268.71 569.169C270.776 562.274 275.57 556.305 281.192 553.628C289.017 549.903 293.501 549.53 300.822 551.997C306.92 554.051 307.191 554.059 311.725 552.326C318.569 549.711 326.281 550.041 332.531 553.217L337.688 555.838L343.031 552.326C357.149 543.048 371.965 528.568 384.401 511.893C411.068 476.137 425.665 430.516 428.526 373.989C429.082 363 429.518 360.371 431.037 358.852C433.221 356.668 434.844 356.54 437.329 358.357C441.187 361.179 441.654 390.533 438.261 416.975C433.758 452.072 421.988 484.625 403.308 513.643C400.431 518.114 397.581 522.078 396.975 522.452C396.37 522.826 395.874 523.576 395.874 524.118C395.874 526.471 423.756 503.636 433.67 493.164C473.593 450.997 493.933 405.785 497.395 351.514C498.912 327.736 493.132 294.11 483.776 272.284L481.838 267.764L476.983 274.139C463.442 291.92 444.124 305.065 422.895 310.943C411.005 314.235 404.874 313.28 404.874 308.134C404.874 304.87 407.376 303.09 416.374 299.952C433.726 293.902 450.648 281.693 461.085 267.695C489.625 229.419 487.961 173.037 456.888 125.437C449.989 114.87 449.767 116.231 461.165 99.2413C475.607 77.7127 484.262 53.1455 486.413 27.5738L487.081 19.6333L484.728 21.2969C477.446 26.4443 458.677 36.6339 447.374 41.5757C432.562 48.0518 419.579 52.8357 395.685 60.622C353.307 74.4317 327.398 88.8586 303.512 111.947C293.228 121.888 284.381 133.099 277.842 144.476C273.531 151.977 273.002 152.514 269.913 152.514C264.854 152.514 264.34 149.651 268.008 141.896C283.27 109.624 311.32 82.0223 348.123 63.0598L359.541 57.1767L348.458 53.5922C323.755 45.6031 301.282 41.5383 273.396 40.0154C235.717 37.9578 199.401 42.6594 164.127 54.162L154.88 57.1775L165.627 62.688C186.932 73.6116 206.967 88.5879 219.985 103.322C232.746 117.765 248.874 143.247 248.874 148.966C248.874 150.067 247.692 151.743 246.247 152.69C243.661 154.384 243.577 154.362 240.997 151.327C239.554 149.631 236.901 145.604 235.101 142.379C227.934 129.54 215.178 114.609 201.97 103.597C179.086 84.5176 154.156 71.7033 118.374 60.6268C84.8118 50.2372 56.7276 38.2797 37.4884 26.1877L27.6719 20.0178L28.3532 27.2661C30.0812 45.6481 36.1501 66.7734 44.4691 83.364C49.0927 92.5849 56.4396 104.485 60.5069 109.341C64.0793 113.606 63.5588 117.216 58.2117 125.259C52.1086 134.44 43.7994 151.475 40.5275 161.514C34.0388 181.424 32.065 198.572 34.2917 215.688C38.6338 249.064 52.7741 273.492 77.1208 289.678C84.5506 294.617 97.2899 300.591 102.54 301.598C106.969 302.447 110.296 306.199 109.485 309.43C108.473 313.462 106.102 314.083 98.0665 312.42C74.532 307.549 49.8581 291.704 37.2107 273.341C35.1778 270.389 33.206 268.321 32.829 268.744C31.7186 269.992 27.1553 282.808 24.3657 292.514C14.2674 327.65 15.1585 366.679 26.9001 403.514C41.9429 450.706 73.0323 492.096 116.447 522.73C119.055 524.57 118.4 523.204 112.125 513.706C93.8051 485.98 81.2093 451.248 76.5146 415.514C75.0375 404.271 74.5417 372.109 75.7212 364.051C76.2235 360.62 76.9944 359.241 79.0562 358.085C81.4939 356.717 81.9174 356.743 83.7119 358.367C85.3781 359.875 85.7859 361.975 86.327 371.834C88.1075 404.273 92.2264 428.265 100.066 451.867C113.951 493.664 139.834 530.412 169.676 550.695L176.977 555.658L181.974 553.185C188.98 549.717 194.996 549.351 202.624 551.926L208.874 554.036L215.086 551.943C222.657 549.393 227.316 549.883 234.499 553.985C240.318 557.308 245.372 564.078 246.348 569.858C246.912 573.197 247.321 573.621 250.177 573.827C258.097 574.396 257.508 584.011 249.553 584.017C246.726 584.019 246.065 584.612 243.574 589.379C240.503 595.256 236.976 597.674 233.885 596.02C231.151 594.557 230.592 591.694 231.852 585.621C233.556 577.414 231.17 570.253 225.808 567.48C219.789 564.368 214.874 568.954 214.874 577.681C214.874 584.803 216.772 589.034 221.768 593.049C225.968 596.424 227.065 599.786 224.624 601.802C222.045 603.934 216.489 604.093 212.374 602.153ZM253.206 267.534C249.121 264.672 235.205 240.828 233.502 233.773C232.466 229.477 235.029 224.651 239.501 222.474C244.277 220.15 264.039 219.148 269.981 220.928C280.43 224.059 282.233 230.04 276.481 242.49C272.508 251.089 265.358 262.355 261.392 266.264C258.24 269.371 256.266 269.677 253.206 267.534ZM121.722 257.642C98.1458 250.663 81.6424 229.416 80.3344 204.358C78.9819 178.449 96.6696 153.851 122.23 146.095C130.65 143.539 144.381 143.313 153.15 145.586C173.2 150.781 190.175 167.715 195.385 187.717C197.31 195.105 197.291 208.996 195.346 216.462C191.692 230.49 181.114 244.461 168.483 251.94C154.997 259.925 136.894 262.133 121.722 257.642ZM163.799 191.222C168.036 188.058 170.137 184.335 170.64 179.1C171.236 172.904 169.732 168.974 165.264 165.052C157.245 158.01 145.282 159.543 139.772 168.319C136.96 172.797 137.488 182.258 140.81 186.923C145.642 193.709 157.498 195.926 163.799 191.222ZM358.874 258.432C348.341 255.653 340.88 251.201 332.344 242.603C323.134 233.326 319.113 226.031 316.357 213.605C312.392 195.727 317.676 176.926 330.598 162.928C345.368 146.929 366.075 140.62 387.677 145.539C405.867 149.681 422.889 165.611 428.974 184.187C432.39 194.614 432.374 209.463 428.935 219.964C422.719 238.945 405.07 254.985 386.075 258.917C378.813 260.421 365.514 260.183 358.874 258.432ZM396.203 192.65C400.388 190.902 404.545 185.951 405.828 181.187C408.852 169.956 396.763 158.082 385.415 161.138C379.998 162.597 376.451 165.279 374.498 169.396C367.921 183.256 382.164 198.516 396.203 192.65Z" fill="#C0B7C9"/>
</svg>
