<?xml version="1.0" encoding="UTF-8" standalone="no"?>
<!-- Created with Inkscape (http://www.inkscape.org/) -->

<svg
   version="1.1"
   id="svg1"
   width="1024"
   height="1024"
   viewBox="0 0 1024 1024"
   sodipodi:docname="skhoot.png"
   inkscape:export-filename="skhoot.svg"
   inkscape:export-xdpi="96"
   inkscape:export-ydpi="96"
   xmlns:inkscape="http://www.inkscape.org/namespaces/inkscape"
   xmlns:sodipodi="http://sodipodi.sourceforge.net/DTD/sodipodi-0.dtd"
   xmlns="http://www.w3.org/2000/svg"
   xmlns:svg="http://www.w3.org/2000/svg">
  <defs
     id="defs1" />
  <sodipodi:namedview
     id="namedview1"
     pagecolor="#ffffff"
     bordercolor="#000000"
     borderopacity="0.25"
     inkscape:showpageshadow="2"
     inkscape:pageopacity="0.0"
     inkscape:pagecheckerboard="0"
     inkscape:deskcolor="#d1d1d1">
    <inkscape:page
       x="0"
       y="0"
       width="1024"
       height="1024"
       id="page2"
       margin="0"
       bleed="0" />
  </sodipodi:namedview>
  <g
     inkscape:groupmode="layer"
     inkscape:label="Image"
     id="g1">
    <path
       style="fill:#000000"
       d="M 468.5,812.1383 C 459.38456,807.84014 454.59766,798.94043 454.44094,786 c -0.0984,-8.12535 -0.21324,-8.53898 -2.6053,-9.38444 -5.62079,-1.98662 -12.39959,4.57358 -12.24237,11.84761 0.12086,5.59214 2.83192,10.11306 8.41831,14.03826 4.98464,3.5024 6.29986,7.06645 3.39226,9.19254 -4.06023,2.96891 -12.93982,0.69671 -18.95879,-4.85138 -6.15767,-5.67595 -8.79645,-11.63406 -8.86409,-20.01429 l -0.0548,-6.78781 -11.51308,-5.08541 C 332.34627,739.76565 277.70112,676.24128 260.65242,599 c -3.9739,-18.00424 -4.97795,-30.0925 -4.35764,-52.46372 0.61046,-22.01561 2.79348,-35.42088 8.84549,-54.31737 3.17833,-9.92388 11.2813,-29.76602 13.02893,-31.90459 0.64288,-0.7867 0.10759,-4.65645 -1.59077,-11.5 -3.49765,-14.09381 -4.53536,-22.28073 -4.55862,-35.96495 -0.0447,-26.27773 8.47698,-55.79629 23.11095,-80.05507 l 4.04517,-6.7057 -5.49964,-8.89082 c -16.78893,-27.14131 -25.1224,-52.41664 -26.34616,-79.90758 -0.75315,-16.91906 0.44803,-21.75391 6.30372,-25.37292 5.59435,-3.4575 10.26709,-2.34937 22.51597,5.33965 14.45883,9.07627 26.98549,15.5905 43.35018,22.54335 18.77067,7.97509 47.00027,17.55458 49.78633,16.8946 1.21752,-0.28841 7.61367,-2.59753 14.21367,-5.13138 54.41815,-20.89198 120.57133,-25.25871 180.5,-11.91468 12.46048,2.77452 39.19421,11.13555 47.86269,14.96916 2.96239,1.31011 6.03465,2.38202 6.82723,2.38202 2.32247,0 32.76781,-10.7688 45.70596,-16.16663 15.97555,-6.66503 31.98543,-14.76952 44.10412,-22.32627 5.5,-3.4296 10.98292,-6.74671 12.18426,-7.37136 5.62998,-2.92739 14.3558,-0.0112 17.54727,5.86426 1.70129,3.13209 1.8567,5.18186 1.47839,19.5 -0.30289,11.4635 -1.0187,18.56656 -2.52462,25.05213 -4.44586,19.14702 -13.0109,39.25419 -23.7718,55.80636 -5.27298,8.11078 -5.64272,9.03925 -4.38047,11 C 746.86876,356.06416 755,382.55445 755,412.95477 c 0,13.951 -1.63813,26.67721 -4.9898,38.76435 l -1.79517,6.47396 4.81698,10.15346 c 13.21504,27.85527 18.55799,55.35141 17.70061,91.09164 -0.85912,35.81247 -7.50645,62.37563 -23.53863,94.06182 -26.77482,52.91808 -70.98108,93.96017 -129.30497,120.04965 l -14.25694,6.37742 0.25213,5.44292 c 0.50225,10.84265 -4.87909,20.45528 -13.99409,24.99748 -6.53717,3.2576 -13.31472,3.57619 -14.85494,0.69827 -2.00448,-3.74542 -1.21261,-5.93457 2.90689,-8.03619 8.72634,-4.45184 12.41375,-14.31894 7.8589,-21.02955 -3.00953,-4.43393 -7.2493,-6.58411 -10.61713,-5.38444 -2.37782,0.84702 -2.48921,1.26527 -2.63236,9.88444 -0.11093,6.67961 -0.67563,10.1602 -2.19026,13.5 -5.01228,11.0522 -20.58991,18.04676 -24.38775,10.95042 -1.49414,-2.79181 -0.51441,-5.14652 2.96167,-7.11816 4.18012,-2.37098 7.20772,-8.84802 7.20772,-15.4197 0,-7.22515 -0.74611,-9.15603 -4.23514,-10.96028 -2.67682,-1.38424 -3.28468,-1.36724 -6.55216,0.18329 -5.24643,2.48959 -6.75128,6.77494 -6.02592,17.1599 0.51368,7.35432 0.35767,8.51722 -1.37511,10.25 -1.07499,1.07499 -2.56884,1.95453 -3.31967,1.95453 -2.59373,0 -6.33181,-3.91796 -8.06299,-8.45099 C 525.04663,794.55523 524.47049,794 521.85155,794 517.31481,794 515,792.34022 515,789.08726 c 0,-3.31162 1.31098,-4.60239 5.60604,-5.51962 2.49981,-0.53385 3.32533,-1.39519 4.22951,-4.41309 2.06586,-6.89524 6.86009,-12.86434 12.48179,-15.54058 7.82509,-3.72518 12.30923,-4.0979 19.63018,-1.63165 6.09752,2.05411 6.36869,2.06231 10.90276,0.32969 6.84452,-2.61552 14.55657,-2.28527 20.80638,0.89099 l 5.15665,2.6207 5.34335,-3.51158 c 14.11826,-9.27834 28.93384,-23.75855 41.37034,-40.43389 26.6663,-35.7552 41.26343,-81.37619 44.12438,-137.90372 0.55616,-10.98887 0.99231,-13.6182 2.51085,-15.13674 2.18424,-2.18424 3.80712,-2.31188 6.29202,-0.49488 3.85848,2.82139 4.32553,32.17558 0.93264,58.6176 -4.50351,35.09756 -16.27379,67.65025 -34.95296,96.66827 -2.87791,4.47081 -5.72787,8.43487 -6.33324,8.80901 -0.60538,0.37415 -1.10069,1.12393 -1.10069,1.66619 0,2.35229 27.8811,-20.48173 37.79592,-30.95403 39.92281,-42.16762 60.26235,-87.37939 63.72442,-141.64993 1.51687,-23.77805 -4.26318,-57.40391 -13.61917,-79.23056 l -1.93742,-4.51982 -4.85493,6.37519 C 719.56777,501.90607 700.2496,515.05094 679.0201,520.92896 667.13024,524.22103 661,523.26535 661,518.1197 c 0,-3.26439 2.50158,-5.04419 11.5,-8.18191 17.3513,-6.05034 34.27369,-18.25923 44.7109,-32.25729 28.53949,-38.27626 26.87577,-94.65787 -4.19776,-142.25776 -6.89851,-10.56745 -7.12077,-9.20617 4.27697,-26.1957 14.44286,-21.52861 23.09788,-46.09582 25.24844,-71.66751 l 0.66779,-7.94048 -2.35317,1.66353 c -7.28138,5.14744 -26.05038,15.33701 -37.35317,20.2788 -14.81226,6.47619 -27.79498,11.26004 -51.68926,19.04638 -42.3783,13.80966 -68.28708,28.23657 -92.1735,51.32541 -10.28363,9.94027 -19.13073,21.15148 -25.6695,32.52889 -4.31088,7.5009 -4.84065,8.03794 -7.92908,8.03794 -5.05895,0 -5.57269,-2.86336 -1.90514,-10.61841 15.2621,-32.27169 43.31168,-59.87359 80.11473,-78.83606 l 11.41823,-5.88315 -11.08324,-3.58442 c -24.70277,-7.9891 -47.17572,-12.0539 -75.06162,-13.57678 -37.67906,-2.05769 -73.99536,2.64399 -109.26907,14.14652 l -9.24744,3.01553 10.74744,5.51048 c 21.30507,10.92363 41.33948,25.8999 54.35785,40.63396 12.76146,14.4433 28.8896,39.92506 28.8896,45.64431 0,1.10105 -1.18252,2.77673 -2.62781,3.72372 -2.58582,1.6943 -2.66973,1.67252 -5.25,-1.36252 -1.44221,-1.69638 -4.09535,-5.72332 -5.89588,-8.94876 -7.16706,-12.83896 -19.92235,-27.76996 -33.13073,-38.78198 C 435.21107,294.50329 410.28166,281.68906 374.5,270.61256 340.93729,260.22296 312.85311,248.26545 293.61392,236.17338 l -9.81655,-6.16982 0.68135,7.24822 c 1.72793,18.38203 7.79683,39.50734 16.11587,56.09793 4.62364,9.22089 11.97052,21.12086 16.03785,25.97702 3.57239,4.26522 3.05191,7.8749 -2.29526,15.91819 -6.10307,9.18032 -14.41226,26.21536 -17.68417,36.25508 -6.48867,19.91024 -8.4625,37.05809 -6.23579,54.17391 4.3421,33.37601 18.48236,57.80416 42.82907,73.98982 7.42979,4.93932 20.16911,10.91334 25.41902,11.92008 4.42888,0.8493 7.75604,4.60127 6.94519,7.83196 -1.01204,4.03226 -3.38278,4.65303 -11.41844,2.98987 -23.53454,-4.87099 -48.20847,-20.7155 -60.85585,-39.07893 -2.03291,-2.9517 -4.00467,-5.02022 -4.38168,-4.59671 -1.11038,1.24729 -5.67369,14.06371 -8.46336,23.77 -10.09828,35.13566 -9.20714,74.16467 2.53444,111 15.04277,47.19176 46.13221,88.58167 89.54704,119.21554 2.60752,1.83988 1.95322,0.47386 -4.32223,-9.02373 -18.31981,-27.72616 -30.91557,-62.45772 -35.61029,-98.19181 -1.47709,-11.24303 -1.97294,-43.40489 -0.79341,-51.46294 0.50228,-3.43133 1.27314,-4.81056 3.33494,-5.96683 2.43778,-1.36712 2.86119,-1.34142 4.6557,0.28259 1.66619,1.50787 2.07403,3.60806 2.61515,13.46683 1.78047,32.43859 5.89937,56.43151 13.7393,80.03256 13.8846,41.79767 39.76754,78.5452 69.60945,98.8286 l 7.30126,4.96263 4.99741,-2.47319 c 7.00596,-3.46721 13.02191,-3.83395 20.65007,-1.25886 l 6.25,2.10986 6.2114,-2.09247 c 7.57124,-2.55056 12.2305,-2.06055 19.41321,2.04167 5.81871,3.3232 10.87245,10.09322 11.84892,15.87286 0.56425,3.33977 0.97337,3.76385 3.82911,3.9691 7.92002,0.56924 7.33117,10.18402 -0.62407,10.18997 -2.82692,0.002 -3.4884,0.59537 -5.9792,5.36255 -3.0706,5.87687 -6.59825,8.29474 -9.68879,6.64073 -2.73388,-1.46313 -3.29347,-4.32602 -2.03266,-10.39929 1.70379,-8.20712 -0.68228,-15.36789 -6.04483,-18.14097 C 475.91495,774.3533 471,778.93939 471,787.66698 c 0,7.12213 1.8979,11.3531 6.89354,15.3677 4.20018,3.37536 5.29703,6.73658 2.85646,8.75339 -2.57912,2.1313 -8.13581,2.29017 -12.25,0.35023 z m 40.83131,-334.6188 c -4.08528,-2.86143 -18.00104,-26.70533 -19.70363,-33.76108 -1.03646,-4.29524 1.52635,-9.12183 5.99929,-11.29857 4.77584,-2.32413 24.53723,-3.32645 30.47995,-1.54596 10.44893,3.13057 12.25193,9.11176 6.49968,21.56175 -3.97313,8.59932 -11.12353,19.86527 -15.08939,23.77436 -3.15199,3.10687 -5.12569,3.41296 -8.1859,1.2695 z m -131.48375,-9.89189 c -23.57624,-6.97889 -40.07962,-28.22604 -41.3877,-53.28426 -1.35246,-25.9086 16.33524,-50.50646 41.89548,-58.26302 8.42013,-2.55519 22.15131,-2.78118 30.92035,-0.50889 20.04951,5.19535 37.02531,22.12956 42.23522,42.13175 1.92424,7.38766 1.90525,21.27888 -0.0393,28.74451 -3.65393,14.02836 -14.23213,27.99896 -26.86309,35.47798 -13.48634,7.98551 -31.58931,10.19295 -46.76096,5.70193 z m 42.07647,-66.42021 c 4.23772,-3.16391 6.33869,-6.88616 6.84172,-12.12133 0.59542,-6.19665 -0.90815,-10.12591 -5.37585,-14.04859 -8.01957,-7.04128 -19.98206,-5.50826 -25.49193,3.26685 -2.81199,4.47843 -2.28449,13.93974 1.03728,18.60474 4.83183,6.78567 16.68807,9.00249 22.98878,4.29833 z M 615,468.41734 c -10.53322,-2.77894 -17.99493,-7.23076 -26.53006,-15.82844 -9.21001,-9.2775 -13.23183,-16.57234 -15.98761,-28.99857 -3.96466,-17.87723 1.31892,-36.67861 14.24108,-50.67625 14.77034,-15.99964 35.47706,-22.30791 57.07918,-17.38907 18.19012,4.14191 35.21211,20.07177 41.29707,38.64741 3.41588,10.42774 3.39958,25.27626 -0.0393,35.77731 -6.2159,18.98111 -23.86449,35.02118 -42.8596,38.9533 -7.26225,1.50333 -20.56173,1.26586 -27.20078,-0.48569 z m 37.32881,-65.78137 c 4.18515,-1.74866 8.34191,-6.69938 9.62461,-11.46297 3.02418,-11.23098 -9.065,-23.10495 -20.41272,-20.04932 -5.41758,1.4588 -8.96401,4.14126 -10.91741,8.25776 -6.57707,13.86014 7.66664,29.12035 21.70552,23.25453 z"
       id="path1" />
  </g>
</svg>
